<svg viewBox="0 0 600 400" xmlns="http://www.w3.org/2000/svg">
<g transform="translate(72, 364)">
<g>
<g>
<circle cx="267.9867696762085" cy="-186.08307778835297" fill="#0228ff" r="3"/>
<circle cx="183.04155349731445" cy="-119.04947638511658" fill="#0228ff" r="3"/>
<circle cx="213.58208656311035" cy="-98.38879942893982" fill="#0228ff" r="3"/>
<circle cx="140.87340831756592" cy="-180.68782329559326" fill="#0228ff" r="3"/>
<circle cx="138.98951053619385" cy="-132.04863965511322" fill="#0228ff" r="3"/>
<circle cx="61.044602394104004" cy="-169.97227668762207" fill="#0228ff" r="3"/>
<circle cx="228.04614543914795" cy="-272.42130517959595" fill="#0228ff" r="3"/>
<circle cx="147.08866596221924" cy="-262.07216024398804" fill="#0228ff" r="3"/>
<circle cx="410.1170253753662" cy="-154.29079174995422" fill="#0228ff" r="3"/>
<circle cx="226.58899784088135" cy="-117.22809731960297" fill="#0228ff" r="3"/>
<circle cx="219.20039176940918" cy="-132.30863690376282" fill="#0228ff" r="3"/>
<circle cx="338.6677551269531" cy="-213.9087414741516" fill="#0228ff" r="3"/>
<circle cx="259.781699180603" cy="-178.60328555107117" fill="#0228ff" r="3"/>
<circle cx="79.73127365112305" cy="-200.9501600265503" fill="#0228ff" r="3"/>
<circle cx="160.81127643585205" cy="-245.60422897338867" fill="#0228ff" r="3"/>
<circle cx="85.42661190032959" cy="-253.3436942100525" fill="#0228ff" r="3"/>
<circle cx="283.8405990600586" cy="-205.12692630290985" fill="#0228ff" r="3"/>
<circle cx="412.0594596862793" cy="-67.62656211853027" fill="#0228ff" r="3"/>
<circle cx="252.46699333190918" cy="-106.64678990840912" fill="#0228ff" r="3"/>
<circle cx="384.6649932861328" cy="-201.00284039974213" fill="#0228ff" r="3"/>
<circle cx="398.85586738586426" cy="-245.03269910812378" fill="#0228ff" r="3"/>
<circle cx="247.86771297454834" cy="-279.84697818756104" fill="#0228ff" r="3"/>
<circle cx="159.3458890914917" cy="-233.00313234329224" fill="#0228ff" r="3"/>
<circle cx="85.54746150970459" cy="-209.70729172229767" fill="#0228ff" r="3"/>
<circle cx="394.9409580230713" cy="-240.63539266586304" fill="#0228ff" r="3"/>
<circle cx="198.31684112548828" cy="-251.64191246032715" fill="#0228ff" r="3"/>
<circle cx="326.0251235961914" cy="-107.77958512306213" fill="#0228ff" r="3"/>
<circle cx="96.15025520324707" cy="-294.0943491458893" fill="#0228ff" r="3"/>
<circle cx="143.28022956848145" cy="-151.4950841665268" fill="#0228ff" r="3"/>
<circle cx="125.27483940124512" cy="-129.38832640647888" fill="#0228ff" r="3"/>
<circle cx="241.23467445373535" cy="-49.22916531562805" fill="#0228ff" r="3"/>
<circle cx="141.83788776397705" cy="-83.29455018043518" fill="#0228ff" r="3"/>
<circle cx="156.86516761779785" cy="-125.84141433238983" fill="#0228ff" r="3"/>
<circle cx="219.90652084350586" cy="-223.07567358016968" fill="#0228ff" r="3"/>
<circle cx="77.93286323547363" cy="-219.0478491783142" fill="#0228ff" r="3"/>
<circle cx="124.0629529953003" cy="-131.14143073558807" fill="#0228ff" r="3"/>
<circle cx="387.48241424560547" cy="-148.56586694717407" fill="#0228ff" r="3"/>
<circle cx="388.5488033294678" cy="-184.51975047588348" fill="#0228ff" r="3"/>
<circle cx="414.1450309753418" cy="-84.32785153388977" fill="#0228ff" r="3"/>
<circle cx="381.04848861694336" cy="-209.02402758598328" fill="#0228ff" r="3"/>
<circle cx="340.237455368042" cy="-155.94729006290436" fill="#0228ff" r="3"/>
<circle cx="181.21769428253174" cy="-244.76728081703186" fill="#0228ff" r="3"/>
<circle cx="302.96788215637207" cy="-130.56276738643646" fill="#0228ff" r="3"/>
<circle cx="321.95122718811035" cy="-291.0721230506897" fill="#0228ff" r="3"/>
<circle cx="387.00674057006836" cy="-171.78602576255798" fill="#0228ff" r="3"/>
<circle cx="239.9386739730835" cy="-105.35078585147858" fill="#0228ff" r="3"/>
<circle cx="319.81472969055176" cy="-207.79216408729553" fill="#0228ff" r="3"/>
<circle cx="256.34817123413086" cy="-139.29734349250793" fill="#0228ff" r="3"/>
<circle cx="360.8427429199219" cy="-79.66063797473907" fill="#0228ff" r="3"/>
<circle cx="73.83174419403076" cy="-291.2301540374756" fill="#0228ff" r="3"/>
<circle cx="307.2539520263672" cy="-72.72962749004364" fill="#0228ff" r="3"/>
<circle cx="137.48597145080566" cy="-62.50151872634888" fill="#0228ff" r="3"/>
<circle cx="148.3088779449463" cy="-237.9781699180603" fill="#0228ff" r="3"/>
<circle cx="214.02475833892822" cy="-132.574622631073" fill="#0228ff" r="3"/>
<circle cx="348.1097602844238" cy="-163.37057173252106" fill="#0228ff" r="3"/>
<circle cx="144.0408182144165" cy="-45.47907054424286" fill="#0228ff" r="3"/>
<circle cx="150.4955005645752" cy="-74.31198418140411" fill="#0228ff" r="3"/>
<circle cx="365.49339294433594" cy="-287.962167263031" fill="#0228ff" r="3"/>
<circle cx="390.5961227416992" cy="-125.72520136833191" fill="#0228ff" r="3"/>
<circle cx="414.0976810455322" cy="-190.33669114112854" fill="#0228ff" r="3"/>
<circle cx="60.52691459655762" cy="-143.9863222837448" fill="#0228ff" r="3"/>
<circle cx="327.94529914855957" cy="-294.28016424179077" fill="#0228ff" r="3"/>
<circle cx="128.91200065612793" cy="-273.4844374656677" fill="#0228ff" r="3"/>
<circle cx="279.73772048950195" cy="-55.30020594596863" fill="#0228ff" r="3"/>
<circle cx="216.41351222991943" cy="-255.70400595664978" fill="#0228ff" r="3"/>
<circle cx="285.6605529785156" cy="-255.18455862998962" fill="#0228ff" r="3"/>
<circle cx="123.98463249206543" cy="-260.8229088783264" fill="#0228ff" r="3"/>
<circle cx="352.921199798584" cy="-128.47944557666779" fill="#0228ff" r="3"/>
<circle cx="316.7435646057129" cy="-100.50853848457336" fill="#0228ff" r="3"/>
<circle cx="159.30816650390625" cy="-213.8601851463318" fill="#0228ff" r="3"/>
<circle cx="126.01341247558594" cy="-230.32211780548096" fill="#0228ff" r="3"/>
<circle cx="336.9619560241699" cy="-169.6848601102829" fill="#0228ff" r="3"/>
<circle cx="63.503265380859375" cy="-187.45440900325775" fill="#0228ff" r="3"/>
<circle cx="253.68441581726074" cy="-232.04485416412354" fill="#0228ff" r="3"/>
<circle cx="155.5053949356079" cy="-66.71184480190277" fill="#0228ff" r="3"/>
<circle cx="257.020525932312" cy="-65.42304515838623" fill="#0228ff" r="3"/>
<circle cx="75.22855281829834" cy="-266.55829071998596" fill="#0228ff" r="3"/>
<circle cx="327.9587745666504" cy="-108.0928099155426" fill="#0228ff" r="3"/>
<circle cx="417.13817596435547" cy="-109.12222027778625" fill="#0228ff" r="3"/>
<circle cx="396.7521286010742" cy="-220.52687168121338" fill="#0228ff" r="3"/>
<circle cx="158.42848777770996" cy="-142.7176159620285" fill="#0228ff" r="3"/>
<circle cx="309.6563529968262" cy="-244.0267562866211" fill="#0228ff" r="3"/>
<circle cx="157.72021293640137" cy="-54.41275596618652" fill="#0228ff" r="3"/>
<circle cx="376.6806221008301" cy="-178.59890818595886" fill="#0228ff" r="3"/>
<circle cx="156.96447372436523" cy="-67.9635888338089" fill="#0228ff" r="3"/>
<circle cx="74.41629409790039" cy="-258.44178438186646" fill="#0228ff" r="3"/>
<circle cx="163.3015251159668" cy="-237.5941777229309" fill="#0228ff" r="3"/>
<circle cx="238.01486492156982" cy="-220.61154127120972" fill="#0228ff" r="3"/>
<circle cx="399.9253463745117" cy="-268.6803197860718" fill="#0228ff" r="3"/>
<circle cx="125.59511661529541" cy="-191.4091455936432" fill="#0228ff" r="3"/>
<circle cx="339.28688049316406" cy="-181.54636442661285" fill="#0228ff" r="3"/>
<circle cx="68.77691745758057" cy="-145.6142157316208" fill="#0228ff" r="3"/>
<circle cx="132.86870956420898" cy="-215.22551774978638" fill="#0228ff" r="3"/>
<circle cx="149.99751091003418" cy="-214.32045698165894" fill="#0228ff" r="3"/>
<circle cx="190.24386405944824" cy="-69.12699520587921" fill="#0228ff" r="3"/>
<circle cx="328.84952545166016" cy="-238.29135417938232" fill="#0228ff" r="3"/>
<circle cx="329.52747344970703" cy="-220.48800230026245" fill="#0228ff" r="3"/>
<circle cx="285.30499935150146" cy="-143.55004489421844" fill="#0228ff" r="3"/>
<circle cx="119.96119022369385" cy="-136.85602009296417" fill="#0228ff" r="3"/>
<circle cx="196.2660026550293" cy="-48.62326502799988" fill="#0228ff" r="3"/>
</g>
</g>
<g>
<g>
<line stroke="black" stroke-width="1" x1="0" x2="0" y1="0" y2="10"/>
<line stroke="black" stroke-width="1" x1="60" x2="60" y1="0" y2="10"/>
<line stroke="black" stroke-width="1" x1="120" x2="120" y1="0" y2="10"/>
<line stroke="black" stroke-width="1" x1="180" x2="180" y1="0" y2="10"/>
<line stroke="black" stroke-width="1" x1="240" x2="240" y1="0" y2="10"/>
<line stroke="black" stroke-width="1" x1="300" x2="300" y1="0" y2="10"/>
<line stroke="black" stroke-width="1" x1="360" x2="360" y1="0" y2="10"/>
<line stroke="black" stroke-width="1" x1="420" x2="420" y1="0" y2="10"/>
<line stroke="black" stroke-width="1" x1="480" x2="480" y1="0" y2="10"/>
</g>
<line stroke="black" stroke-width="1" x1="0" x2="480" y1="0" y2="0"/>
<g>
<text font-size="12" text-anchor="middle" x="0" y="20">
-4
</text>
<text font-size="12" text-anchor="middle" x="60" y="20">
-3
</text>
<text font-size="12" text-anchor="middle" x="120" y="20">
-2
</text>
<text font-size="12" text-anchor="middle" x="180" y="20">
-1
</text>
<text font-size="12" text-anchor="middle" x="240" y="20">
0
</text>
<text font-size="12" text-anchor="middle" x="300" y="20">
1
</text>
<text font-size="12" text-anchor="middle" x="360" y="20">
2
</text>
<text font-size="12" text-anchor="middle" x="420" y="20">
3
</text>
<text font-size="12" text-anchor="middle" x="480" y="20">
4
</text>
</g>
<text font-size="12" text-anchor="middle" x="240" y="30">
x
</text>
</g>
<g>
<g>
<line stroke="black" stroke-width="1" x1="0" x2="-10" y1="-0" y2="-0"/>
<line stroke="black" stroke-width="1" x1="0" x2="-10" y1="-42.5" y2="-42.5"/>
<line stroke="black" stroke-width="1" x1="0" x2="-10" y1="-85" y2="-85"/>
<line stroke="black" stroke-width="1" x1="0" x2="-10" y1="-127.5" y2="-127.5"/>
<line stroke="black" stroke-width="1" x1="0" x2="-10" y1="-170" y2="-170"/>
<line stroke="black" stroke-width="1" x1="0" x2="-10" y1="-212.5" y2="-212.5"/>
<line stroke="black" stroke-width="1" x1="0" x2="-10" y1="-255" y2="-255"/>
<line stroke="black" stroke-width="1" x1="0" x2="-10" y1="-297.5" y2="-297.5"/>
<line stroke="black" stroke-width="1" x1="0" x2="-10" y1="-340" y2="-340"/>
</g>
<line stroke="black" stroke-width="1" x1="0" x2="0" y1="0" y2="-340"/>
<g>
<text dominant-baseline="middle" font-size="12" text-anchor="end" x="-15" y="-0">
-4
</text>
<text dominant-baseline="middle" font-size="12" text-anchor="end" x="-15" y="-42.5">
-3
</text>
<text dominant-baseline="middle" font-size="12" text-anchor="end" x="-15" y="-85">
-2
</text>
<text dominant-baseline="middle" font-size="12" text-anchor="end" x="-15" y="-127.5">
-1
</text>
<text dominant-baseline="middle" font-size="12" text-anchor="end" x="-15" y="-170">
0
</text>
<text dominant-baseline="middle" font-size="12" text-anchor="end" x="-15" y="-212.5">
1
</text>
<text dominant-baseline="middle" font-size="12" text-anchor="end" x="-15" y="-255">
2
</text>
<text dominant-baseline="middle" font-size="12" text-anchor="end" x="-15" y="-297.5">
3
</text>
<text dominant-baseline="middle" font-size="12" text-anchor="end" x="-15" y="-340">
4
</text>
</g>
<text font-size="12" text-anchor="middle" transform="rotate(-90 -24 -170)" x="-24" y="-182">
y
</text>
</g>
</g>
</svg>